<?xml version="1.0" encoding="utf-8"?>
<!-- Generator: Adobe Illustrator 25.1.0, SVG Export Plug-In . SVG Version: 6.00 Build 0)  -->
<svg version="1.1" id="Layer_1" xmlns:serif="http://www.serif.com/"
	 xmlns="http://www.w3.org/2000/svg" xmlns:xlink="http://www.w3.org/1999/xlink" x="0px" y="0px" viewBox="0 0 612 612"
	 style="enable-background:new 0 0 612 612;" xml:space="preserve">
<style type="text/css">
	.st0{fill-rule:evenodd;clip-rule:evenodd;fill:#FFFFFF;}
</style>
<path class="st0" d="M306,0c168.9,0,306,137.1,306,306S474.9,612,306,612S0,474.9,0,306S137.1,0,306,0z M210.3,478V239h-79.4v239
	H210.3z M496.8,478v-137c0-73.4-39.2-107.5-91.5-107.5c-42.1,0-61,23.2-71.6,39.5V239h-79.4c1.1,22.4,0,239,0,239h79.4V344.5
	c0-7.1,0.5-14.3,2.6-19.4c5.7-14.3,18.8-29,40.8-29c28.7,0,40.2,21.9,40.2,54V478L496.8,478L496.8,478z M171.1,123.8
	c-27.2,0-44.9,17.9-44.9,41.3c0,22.9,17.2,41.3,43.9,41.3h0.5c27.7,0,44.9-18.4,44.9-41.3C215,141.6,198.3,123.8,171.1,123.8
	L171.1,123.8z"/>
</svg>
