<?xml version="1.0" encoding="utf-8"?>
<!-- Generator: Adobe Illustrator 25.1.0, SVG Export Plug-In . SVG Version: 6.00 Build 0)  -->
<svg version="1.1" id="Layer_1" xmlns:sketch="http://www.bohemiancoding.com/sketch/ns"
	 xmlns="http://www.w3.org/2000/svg" xmlns:xlink="http://www.w3.org/1999/xlink" x="0px" y="0px" viewBox="0 0 60 60"
	 style="enable-background:new 0 0 60 60;" xml:space="preserve">
<style type="text/css">
	.st0{fill-rule:evenodd;clip-rule:evenodd;fill:#FFFFFF;}
</style>
<path class="st0" d="M30,0C13.4,0,0,13.4,0,30s13.4,30,30,30s30-13.4,30-30S46.6,0,30,0z M35.8,48.4c-0.9,0.2-1.3-0.4-1.3-0.9
	c0-0.6,0-2.7,0-5.2c0-1.8-0.6-2.9-1.3-3.5c4.1-0.5,8.4-2.1,8.4-9.3c0-2.1-0.7-3.8-1.9-5.1c0.2-0.5,0.8-2.4-0.2-5
	c0,0-1.5-0.5-5.1,1.9c-1.5-0.4-3.1-0.6-4.6-0.6c-1.6,0-3.2,0.2-4.6,0.6c-3.5-2.4-5.1-1.9-5.1-1.9c-1,2.6-0.4,4.5-0.2,5
	c-1.2,1.3-1.9,3-1.9,5.1c0,7.3,4.3,8.9,8.4,9.4c-0.5,0.5-1,1.3-1.2,2.5c-1.1,0.5-3.7,1.3-5.4-1.6c0,0-1-1.8-2.8-2c0,0-1.8,0-0.1,1.2
	c0,0,1.2,0.6,2.1,2.8c0,0,1.1,3.7,6.2,2.5c0,1.6,0,2.8,0,3.2c0,0.5-0.3,1.1-1.3,0.9c-7.3-2.5-12.6-9.6-12.6-18
	c0-10.5,8.3-18.9,18.5-18.9c10.2,0,18.5,8.5,18.5,18.9C48.5,38.8,43.2,45.9,35.8,48.4z"/>
</svg>
