<?xml version="1.0" encoding="utf-8"?>
<!-- Generator: Adobe Illustrator 25.1.0, SVG Export Plug-In . SVG Version: 6.00 Build 0)  -->
<svg version="1.1" id="Layer_1" xmlns:serif="http://www.serif.com/"
	 xmlns="http://www.w3.org/2000/svg" xmlns:xlink="http://www.w3.org/1999/xlink" x="0px" y="0px" viewBox="0 0 612 612"
	 style="enable-background:new 0 0 612 612;" xml:space="preserve">
<style type="text/css">
	.st0{fill-rule:evenodd;clip-rule:evenodd;fill:#FFFFFF;}
</style>
<path class="st0" d="M306,0c168.9,0,306,137.1,306,306S474.9,612,306,612S0,474.9,0,306S137.1,0,306,0z M306,114.8
	c-51.9,0-58.5,0.2-78.9,1.2c-20.4,0.9-34.3,4.2-46.4,8.9c-12.6,4.9-23.2,11.4-33.9,22.1s-17.2,21.3-22.1,33.9
	c-4.7,12.2-8,26.1-8.9,46.4c-0.9,20.4-1.1,26.9-1.1,78.9s0.2,58.5,1.1,78.9c0.9,20.4,4.2,34.3,8.9,46.4
	c4.9,12.6,11.4,23.2,22.1,33.9c10.6,10.6,21.3,17.2,33.9,22.1c12.2,4.7,26.1,8,46.4,8.9c20.4,0.9,26.9,1.2,78.9,1.2
	s58.5-0.2,78.9-1.2c20.4-0.9,34.3-4.2,46.4-8.9c12.6-4.9,23.2-11.4,33.9-22.1c10.6-10.6,17.2-21.3,22.1-33.9
	c4.7-12.2,8-26.1,8.9-46.4c0.9-20.4,1.2-26.9,1.2-78.9s-0.2-58.5-1.2-78.9c-0.9-20.4-4.2-34.3-8.9-46.4
	c-4.9-12.6-11.4-23.2-22.1-33.9c-10.6-10.6-21.3-17.2-33.9-22.1c-12.2-4.7-26.1-8-46.4-8.9C364.5,115,357.9,114.8,306,114.8z
	 M306,149.2c51.1,0,57.1,0.2,77.3,1.1c18.6,0.9,28.8,4,35.5,6.6c8.9,3.5,15.3,7.6,22,14.3c6.7,6.7,10.8,13.1,14.3,22
	c2.6,6.7,5.7,16.9,6.6,35.5c0.9,20.2,1.1,26.2,1.1,77.3s-0.2,57.1-1.1,77.3c-0.8,18.6-4,28.8-6.6,35.5c-3.5,8.9-7.6,15.3-14.3,22
	c-6.7,6.7-13.1,10.8-22,14.3c-6.7,2.6-16.9,5.7-35.5,6.6c-20.2,0.9-26.2,1.1-77.3,1.1s-57.1-0.2-77.3-1.1c-18.6-0.8-28.8-4-35.5-6.6
	c-8.9-3.5-15.3-7.6-22-14.3c-6.7-6.7-10.8-13.1-14.3-22c-2.6-6.7-5.7-16.9-6.6-35.5c-0.9-20.2-1.1-26.2-1.1-77.3s0.2-57.1,1.1-77.3
	c0.9-18.6,4-28.8,6.6-35.5c3.5-8.9,7.6-15.3,14.3-22c6.7-6.7,13.1-10.8,22-14.3c6.7-2.6,16.9-5.7,35.5-6.6
	C248.9,149.4,254.9,149.2,306,149.2z M306,207.8c-54.2,0-98.2,44-98.2,98.2s44,98.2,98.2,98.2s98.2-44,98.2-98.2
	S360.2,207.8,306,207.8L306,207.8z M306,369.7c-35.2,0-63.7-28.5-63.7-63.7s28.5-63.7,63.7-63.7s63.7,28.5,63.7,63.7
	S341.2,369.7,306,369.7z M431,203.9c0,12.7-10.3,22.9-23,22.9c-12.7,0-22.9-10.3-22.9-22.9c0-12.7,10.3-22.9,22.9-22.9
	C420.8,181,431,191.2,431,203.9z"/>
</svg>
